<svg width="210" height="206" viewBox="0 0 210 206" fill="none" xmlns="http://www.w3.org/2000/svg">
<g id="vuesax/linear/camera">
<g id="camera">
<path id="Vector" d="M71.2608 232.417H181.738C210.833 232.417 222.428 214.601 223.799 192.885L229.28 105.811C230.756 83.0413 212.625 63.75 189.749 63.75C183.319 63.75 177.415 60.0605 174.464 54.368L166.874 39.0825C162.025 29.4896 149.375 21.5834 138.622 21.5834H114.482C103.624 21.5834 90.9737 29.4896 86.1246 39.0825L78.5346 54.368C75.5829 60.0605 69.6796 63.75 63.2492 63.75C40.3737 63.75 22.2421 83.0413 23.7179 105.811L29.1996 192.885C30.4646 214.601 42.1658 232.417 71.2608 232.417Z" stroke="#C4B9F9" stroke-width="15.8125" stroke-linecap="round" stroke-linejoin="round"/>
<path id="Vector_2" d="M110.688 84.8334H142.313" stroke="#C4B9F9" stroke-width="15.8125" stroke-linecap="round" stroke-linejoin="round"/>
<path id="Vector_3" d="M126.5 190.25C145.37 190.25 160.761 174.859 160.761 155.99C160.761 137.12 145.37 121.729 126.5 121.729C107.631 121.729 92.2397 137.12 92.2397 155.99C92.2397 174.859 107.631 190.25 126.5 190.25Z" stroke="#C4B9F9" stroke-width="15.8125" stroke-linecap="round" stroke-linejoin="round"/>
</g>
</g>
</svg>
